<?xml version="1.0" standalone="no"?>
<!DOCTYPE svg PUBLIC "-//W3C//DTD SVG 20010904//EN"
 "http://www.w3.org/TR/2001/REC-SVG-20010904/DTD/svg10.dtd">
<svg version="1.0" xmlns="http://www.w3.org/2000/svg"
 width="700.000000pt" height="700.000000pt" viewBox="0 0 700.000000 700.000000"
 preserveAspectRatio="xMidYMid meet">
<metadata>
Created by potrace 1.11, written by Peter Selinger 2001-2013
</metadata>
<g transform="translate(0.000000,700.000000) scale(0.100000,-0.100000)"
fill="#000000" stroke="none">
<path d="M670 6993 c-283 -47 -512 -228 -613 -485 -60 -150 -57 54 -54 -3033
l2 -2830 22 -72 c96 -307 317 -504 633 -563 25 -5 1316 -8 2870 -7 l2825 2 75
23 c293 91 503 320 555 607 11 56 13 638 12 2895 l-2 2825 -23 72 c-73 236
-228 414 -437 505 -80 34 -96 39 -200 58 -49 9 -5613 12 -5665 3z"/>
</g>
</svg>
